<?xml version="1.0" standalone="no"?>
<!DOCTYPE svg PUBLIC "-//W3C//DTD SVG 20010904//EN"
 "http://www.w3.org/TR/2001/REC-SVG-20010904/DTD/svg10.dtd">
<svg version="1.0" xmlns="http://www.w3.org/2000/svg"
 width="1024.000000pt" height="1024.000000pt" viewBox="0 0 1024.000000 1024.000000"
 preserveAspectRatio="xMidYMid meet">
<metadata>
Created by potrace 1.14, written by Peter Selinger 2001-2017
</metadata>
<g transform="translate(0.000000,1024.000000) scale(0.100000,-0.100000)"
fill="#000000" stroke="none">
<path d="M4997 10083 c-4 -4 -44 -8 -90 -9 -75 -1 -218 -11 -292 -19 -132 -14
-250 -31 -250 -35 0 -1 -16 -3 -35 -4 -19 -2 -62 -8 -95 -15 -33 -6 -73 -14
-90 -17 -16 -3 -46 -9 -65 -14 -19 -5 -46 -11 -60 -13 -61 -11 -276 -70 -395
-108 -71 -23 -134 -42 -140 -43 -5 -1 -20 -7 -32 -14 -12 -7 -26 -12 -30 -11
-4 1 -24 -5 -44 -14 -19 -9 -47 -19 -62 -22 -15 -4 -27 -12 -27 -18 0 -6 -3
-8 -6 -5 -5 5 -27 -2 -119 -42 -11 -5 -60 -27 -108 -49 -49 -23 -93 -41 -98
-41 -5 0 -9 -4 -9 -10 0 -5 -6 -10 -12 -10 -14 0 -50 -18 -193 -95 -49 -26
-93 -53 -97 -59 -4 -6 -8 -8 -8 -4 0 4 -42 -19 -93 -51 -50 -31 -103 -64 -117
-72 -14 -8 -27 -16 -30 -19 -14 -15 -111 -80 -120 -80 -5 0 -14 -8 -19 -17 -6
-10 -11 -14 -11 -10 0 5 -6 2 -14 -5 -8 -7 -26 -22 -42 -33 -35 -25 -165 -125
-181 -139 -7 -6 -27 -22 -44 -36 -18 -14 -42 -34 -54 -45 -13 -11 -49 -42 -81
-70 -69 -59 -374 -362 -422 -420 -18 -22 -56 -66 -84 -98 -108 -123 -398 -521
-398 -547 0 -6 -4 -10 -10 -10 -5 0 -10 -4 -10 -10 0 -5 -17 -36 -37 -67 -21
-32 -38 -60 -38 -63 0 -3 -20 -37 -43 -77 -36 -62 -164 -309 -167 -323 -1 -3
-14 -32 -29 -65 -15 -33 -42 -96 -60 -140 -47 -114 -49 -119 -52 -130 -1 -5
-10 -28 -19 -49 -9 -22 -18 -47 -20 -55 -2 -9 -15 -46 -29 -83 -14 -38 -23
-68 -19 -68 3 0 1 -6 -4 -12 -8 -10 -33 -87 -38 -118 -1 -3 -7 -25 -14 -50 -7
-25 -15 -52 -16 -60 -2 -8 -4 -15 -5 -15 -1 0 -4 -11 -6 -25 -3 -14 -10 -43
-16 -65 -6 -22 -12 -49 -14 -60 -2 -11 -5 -29 -8 -40 -15 -63 -36 -171 -41
-204 -2 -22 -11 -77 -19 -123 -8 -47 -18 -116 -22 -154 -3 -38 -8 -77 -10 -87
-25 -134 -25 -808 1 -992 3 -22 7 -60 9 -85 2 -25 7 -61 10 -80 3 -19 8 -51
11 -70 2 -19 7 -48 10 -65 3 -16 7 -46 9 -65 3 -19 5 -35 6 -35 2 0 8 -30 15
-70 12 -79 20 -114 28 -135 3 -8 13 -46 21 -85 9 -38 18 -77 20 -85 3 -8 11
-40 20 -70 29 -109 52 -181 72 -235 4 -11 8 -24 10 -30 1 -5 9 -27 18 -47 9
-21 13 -38 10 -38 -4 0 -2 -6 3 -12 5 -7 18 -35 28 -63 20 -58 90 -226 111
-269 8 -16 14 -35 14 -43 0 -7 5 -13 10 -13 6 0 10 -5 10 -11 0 -18 131 -275
192 -374 10 -16 28 -49 40 -72 12 -24 26 -43 30 -43 4 0 8 -5 8 -10 0 -6 18
-38 40 -71 22 -33 40 -63 40 -65 0 -3 6 -12 13 -19 29 -33 37 -45 37 -55 0 -5
4 -10 9 -10 5 0 13 -9 16 -20 3 -11 12 -26 18 -32 7 -7 41 -52 77 -100 35 -49
68 -88 72 -88 4 0 8 -6 8 -14 0 -8 3 -16 8 -18 4 -1 52 -57 107 -123 104 -125
360 -387 478 -490 38 -33 74 -65 80 -70 7 -6 37 -30 67 -55 30 -25 57 -47 60
-50 3 -4 61 -47 130 -98 69 -50 136 -99 150 -110 38 -28 240 -157 285 -182
216 -122 288 -160 300 -160 8 0 15 -4 17 -8 3 -9 151 -78 268 -127 36 -15 77
-34 93 -42 15 -8 27 -11 27 -7 0 3 11 -1 25 -10 14 -9 25 -14 25 -10 0 4 7 1
15 -6 8 -7 15 -9 15 -5 0 4 11 0 25 -9 13 -9 33 -16 43 -16 10 0 22 -3 26 -8
4 -4 11 -7 14 -8 4 0 14 -4 22 -7 14 -6 238 -75 270 -83 8 -2 77 -19 152 -38
75 -19 174 -42 220 -51 46 -9 92 -18 104 -21 11 -2 36 -6 55 -8 19 -3 34 -5
34 -6 0 -1 16 -3 35 -5 19 -3 55 -7 80 -11 101 -15 227 -27 302 -28 32 -1 58
-3 58 -6 0 -3 45 -5 101 -5 55 0 103 -3 106 -8 2 -4 13 -2 24 3 10 6 19 7 19
3 0 -10 93 -8 109 1 5 4 12 2 16 -4 4 -6 11 -7 18 -3 9 6 101 11 285 15 23 1
42 4 42 7 0 3 24 6 53 7 28 1 81 5 117 9 36 4 76 9 90 10 14 2 25 4 25 5 0 1
14 3 30 5 17 1 32 4 35 5 3 1 8 2 13 1 4 -1 26 3 50 8 23 5 58 12 77 15 19 3
59 10 88 17 30 6 59 12 65 13 7 2 26 6 42 10 17 5 75 19 130 32 101 25 313 87
350 104 11 4 63 23 115 40 52 18 107 39 121 46 15 7 29 10 33 7 3 -4 6 -1 6 5
0 7 3 11 8 10 4 -1 21 5 37 12 17 7 35 14 40 15 10 2 153 69 265 123 30 15 58
32 62 37 4 6 8 6 8 1 0 -5 6 -4 13 1 6 6 37 24 67 40 96 53 154 85 180 102 14
9 34 21 45 28 62 37 148 93 208 135 37 26 69 48 72 48 3 0 39 26 79 57 41 32
86 67 102 78 15 11 32 25 38 30 6 6 34 28 61 50 28 22 57 46 66 55 10 8 38 33
64 55 68 57 391 379 447 445 25 30 62 75 83 100 20 25 50 61 68 82 52 59 212
281 209 290 -1 4 2 8 7 8 9 0 112 155 110 166 0 4 3 10 8 13 9 6 18 21 105
170 78 134 214 409 210 424 -1 4 2 7 8 7 5 0 10 9 10 20 0 11 5 20 12 20 6 0
9 3 5 6 -3 4 1 21 10 38 9 17 18 36 19 41 1 6 22 62 47 125 69 178 144 409
152 467 2 12 7 28 11 35 4 7 9 19 10 28 2 23 10 59 29 129 9 35 18 77 20 92 2
16 6 36 9 46 3 10 7 34 10 53 3 19 8 46 11 60 2 13 7 40 10 60 3 20 7 45 9 56
2 12 7 45 10 75 4 30 9 70 11 89 22 160 30 317 30 590 -1 317 -7 412 -46 688
-21 151 -45 280 -84 451 -9 40 -18 79 -19 87 -1 7 -5 17 -9 20 -4 4 -7 18 -7
30 0 13 -5 26 -10 29 -6 4 -8 10 -5 14 4 8 -37 147 -48 157 -3 3 -173 -163
-379 -368 -206 -205 -385 -381 -397 -391 -13 -11 -20 -25 -17 -35 7 -23 25
-141 41 -272 27 -208 26 -740 -1 -865 -2 -11 -6 -42 -9 -70 -2 -27 -7 -61 -9
-75 -3 -14 -7 -41 -10 -60 -6 -36 -14 -79 -21 -117 -3 -13 -7 -33 -10 -45 -2
-13 -6 -34 -8 -48 -10 -57 -80 -316 -88 -324 -5 -6 -9 -20 -9 -33 0 -13 -5
-23 -11 -23 -5 0 -7 -4 -4 -10 3 -5 0 -24 -8 -42 -8 -18 -34 -85 -57 -148 -45
-120 -168 -391 -183 -401 -5 -3 -9 -10 -9 -15 0 -8 -25 -58 -47 -94 -6 -8 -33
-55 -62 -105 -29 -49 -57 -94 -61 -100 -5 -5 -23 -32 -41 -60 -17 -27 -35 -54
-39 -60 -4 -5 -36 -48 -69 -95 -59 -81 -99 -132 -137 -175 -10 -11 -43 -49
-73 -85 -96 -116 -398 -410 -420 -410 -5 0 -9 -7 -9 -15 0 -8 -4 -15 -10 -15
-6 0 -19 -9 -30 -20 -11 -11 -20 -18 -20 -15 0 6 -32 -20 -66 -53 -13 -13 -24
-20 -24 -18 0 5 -26 -14 -54 -40 -11 -10 -124 -90 -155 -109 -8 -5 -40 -26
-71 -46 -94 -61 -320 -189 -335 -189 -7 0 -15 -4 -17 -8 -3 -7 -116 -64 -128
-64 -3 0 -24 -11 -47 -24 -24 -13 -43 -22 -43 -19 0 2 -24 -7 -54 -21 -65 -30
-229 -90 -306 -112 -30 -9 -57 -18 -60 -21 -3 -3 -12 -7 -20 -7 -8 -1 -67 -16
-130 -33 -115 -31 -280 -67 -355 -77 -22 -4 -49 -8 -60 -9 -11 -2 -45 -6 -75
-10 -30 -4 -66 -8 -80 -11 -108 -18 -581 -25 -750 -11 -192 16 -216 18 -230
24 -8 3 -33 7 -55 9 -36 3 -72 9 -85 14 -3 1 -8 2 -12 1 -4 0 -39 6 -78 14
-38 8 -82 17 -97 20 -98 17 -470 131 -588 180 -16 6 -66 27 -110 45 -110 46
-459 223 -475 241 -3 3 -24 16 -47 29 -24 13 -43 28 -43 32 0 5 -4 7 -9 4 -5
-3 -14 1 -21 9 -7 8 -17 15 -22 15 -5 0 -22 9 -36 20 -15 12 -85 64 -157 116
-71 52 -132 98 -135 102 -3 4 -27 25 -55 47 -136 108 -373 345 -512 512 -33
39 -48 58 -77 98 -17 22 -33 42 -36 45 -20 17 -187 264 -195 288 -3 12 -10 22
-15 22 -5 0 -18 17 -28 38 -10 20 -33 61 -50 90 -18 29 -32 57 -32 62 0 4 -3
10 -7 12 -14 6 -154 302 -200 423 -75 194 -142 399 -146 443 -1 12 -5 22 -10
22 -4 0 -5 5 -2 10 4 6 1 17 -5 25 -7 8 -10 22 -6 30 3 8 2 15 -2 15 -4 0 -8
8 -8 18 -1 9 -4 28 -7 42 -13 56 -18 77 -23 109 -3 18 -8 43 -10 55 -2 11 -7
37 -9 56 -3 19 -8 44 -10 56 -2 11 -7 42 -10 70 -10 84 -14 109 -15 109 -2 0
-10 137 -15 257 -2 69 -5 130 -6 135 -1 4 -1 10 0 13 7 17 5 100 -2 100 -5 0
-5 5 -2 10 3 6 8 49 11 98 4 80 7 117 18 243 7 69 15 122 38 249 11 63 22 122
23 130 1 8 4 24 8 35 3 11 8 31 11 45 4 21 14 67 31 130 2 8 4 15 5 15 1 0 4
11 7 25 7 39 11 55 13 55 1 0 3 7 5 15 4 19 54 170 62 190 3 8 7 17 7 20 5 17
42 113 62 157 13 28 24 55 24 58 0 4 14 37 32 73 17 37 32 69 33 72 2 11 94
188 119 230 15 25 29 53 33 63 3 9 9 17 13 17 4 0 10 10 14 23 3 12 12 31 21
42 8 11 48 70 87 130 40 61 75 112 78 115 3 3 17 21 30 40 13 19 29 40 35 47
5 7 20 25 32 40 114 148 166 206 344 383 156 155 253 243 275 248 8 2 14 7 14
11 0 4 42 38 93 77 50 38 94 71 97 74 10 11 269 180 275 180 4 0 19 8 33 19
71 49 424 226 512 256 14 5 48 18 70 27 184 75 535 173 730 204 19 3 44 8 54
11 11 3 38 7 60 9 23 2 50 5 62 8 24 5 112 15 204 23 159 13 651 6 765 -12 17
-2 49 -7 73 -10 87 -11 128 -17 167 -26 39 -8 41 -7 75 33 19 23 194 201 388
395 315 317 371 377 345 371 -5 -1 -28 4 -53 11 -25 7 -46 13 -47 12 -2 0 -21
6 -44 14 -23 9 -51 17 -63 20 -12 2 -87 20 -169 39 -81 19 -166 37 -188 40
-22 3 -43 7 -47 10 -4 2 -32 7 -62 11 -70 9 -90 12 -142 20 -41 7 -72 11 -183
21 -27 2 -75 7 -105 9 -30 3 -103 7 -161 9 -58 1 -111 6 -117 10 -6 3 -13 2
-17 -3 -4 -7 -15 -7 -30 -1 -14 5 -25 6 -25 2 0 -9 -69 -6 -77 2 -3 3 -15 1
-28 -4 -13 -5 -26 -5 -32 1 -5 5 -13 6 -16 2z"/>
<path d="M7906 10083 c-3 -3 -21 -7 -40 -9 -47 -3 -123 -32 -171 -67 -46 -33
-275 -255 -275 -267 0 -5 -5 -10 -10 -12 -9 -3 -950 -938 -950 -944 0 -1 -31
-33 -70 -70 -38 -37 -70 -73 -70 -81 0 -7 -4 -13 -10 -13 -9 0 -48 -79 -56
-115 -2 -11 -6 -38 -8 -60 -2 -22 -5 -44 -6 -50 -1 -5 -2 -12 -1 -15 1 -3 4
-21 6 -41 2 -20 28 -108 57 -195 28 -88 51 -162 50 -166 -1 -5 3 -8 10 -8 6 0
9 -3 6 -6 -3 -3 10 -51 29 -107 20 -56 36 -109 37 -117 1 -9 5 -21 9 -27 8
-13 57 -158 62 -185 2 -9 10 -29 19 -46 8 -16 13 -32 10 -35 -3 -3 -1 -13 5
-24 5 -10 20 -48 31 -85 l22 -68 -921 -921 c-507 -506 -934 -939 -949 -962
-25 -37 -43 -72 -44 -87 0 -3 -4 -13 -10 -23 -13 -25 -21 -64 -22 -114 -1 -24
-5 -43 -9 -43 -5 0 -5 -6 -1 -12 5 -7 9 -27 10 -45 3 -91 61 -207 140 -285
158 -156 412 -180 598 -56 26 17 461 444 966 949 505 506 926 919 934 919 9 0
16 -4 16 -8 0 -4 8 -8 18 -9 14 0 416 -131 462 -150 8 -3 17 -7 20 -8 13 -3
87 -27 100 -33 8 -3 22 -7 30 -8 8 -1 31 -9 51 -18 20 -8 39 -12 43 -9 3 4 6
1 6 -5 0 -7 8 -12 17 -12 18 0 85 -22 93 -30 3 -3 10 -5 15 -5 6 -1 42 -11 80
-23 62 -19 119 -32 150 -34 64 -5 196 38 253 82 40 31 332 323 332 332 0 4 4
8 8 8 10 0 945 935 950 950 2 5 9 10 15 10 17 1 90 106 112 160 21 53 28 168
14 225 -5 22 -11 47 -13 56 -10 40 -51 104 -94 147 -53 52 -92 85 -92 76 0 -4
-6 -2 -12 4 -7 5 -49 22 -93 36 -44 15 -87 30 -95 33 -8 3 -19 7 -25 9 -5 1
-62 20 -125 42 -63 21 -117 39 -120 40 -3 0 -18 6 -35 12 -16 7 -37 13 -45 15
-8 2 -35 11 -60 20 -25 9 -49 17 -55 18 -5 2 -123 40 -261 86 -226 75 -252 86
-268 112 -9 16 -15 29 -12 29 2 0 -13 51 -35 113 -22 61 -42 121 -44 132 -3
11 -39 119 -80 240 -42 121 -78 230 -81 242 -2 12 -9 35 -16 50 -6 16 -12 33
-14 40 -6 30 -28 89 -37 101 -5 6 -7 12 -4 12 11 0 -54 174 -80 215 -37 59
-111 125 -173 154 -61 28 -68 30 -126 35 -23 2 -46 6 -52 9 -5 4 -12 4 -16 0z"/>
<path d="M5037 8163 c-4 -3 -39 -7 -79 -8 -40 -1 -102 -6 -137 -10 -35 -4 -80
-9 -100 -11 -169 -17 -439 -83 -624 -151 -37 -14 -73 -26 -80 -27 -6 -1 -32
-12 -57 -23 -50 -23 -102 -46 -110 -48 -11 -2 -208 -106 -251 -132 -26 -16
-70 -41 -98 -58 -28 -16 -51 -33 -51 -37 0 -5 -6 -8 -14 -8 -7 0 -25 -11 -40
-25 -14 -13 -30 -25 -34 -26 -7 -2 -67 -45 -88 -64 -6 -5 -22 -17 -34 -25 -22
-15 -67 -53 -124 -102 -17 -15 -35 -28 -39 -28 -5 0 -5 -4 -2 -10 3 -5 2 -10
-4 -10 -17 0 -194 -182 -296 -305 -22 -26 -46 -54 -52 -61 -7 -7 -13 -17 -13
-22 0 -6 -3 -12 -8 -14 -10 -4 -143 -190 -153 -213 -2 -6 -20 -35 -39 -65 -19
-30 -34 -57 -34 -60 1 -3 -7 -16 -17 -29 -11 -13 -19 -29 -19 -35 0 -7 -8 -21
-17 -32 -10 -11 -19 -24 -20 -29 -1 -6 -19 -48 -41 -95 -56 -120 -82 -181 -82
-191 0 -4 -5 -20 -12 -36 -6 -15 -12 -30 -13 -33 -1 -3 -4 -12 -8 -20 -6 -14
-49 -157 -53 -172 -1 -5 -2 -9 -4 -10 -3 -4 -9 -29 -16 -68 -3 -19 -10 -43
-15 -52 -5 -10 -8 -18 -5 -18 3 0 1 -14 -4 -32 -5 -17 -12 -47 -15 -67 -3 -20
-8 -48 -10 -61 -11 -52 -14 -74 -31 -225 -1 -16 -5 -74 -8 -128 -3 -53 -8
-102 -11 -107 -3 -6 -2 -10 4 -10 6 0 7 -11 2 -27 -4 -16 -4 -40 0 -55 4 -16
3 -30 -2 -34 -5 -3 -6 -10 -3 -16 4 -6 8 -43 10 -82 4 -106 13 -191 30 -301 3
-22 7 -51 8 -65 1 -14 6 -31 10 -38 4 -8 6 -16 3 -18 -3 -3 1 -26 9 -51 8 -25
11 -49 8 -54 -3 -5 -1 -9 4 -9 5 0 9 -6 10 -12 7 -81 87 -326 162 -498 75
-174 244 -476 273 -488 4 -2 7 -8 7 -13 0 -14 142 -200 225 -294 121 -138 269
-278 405 -384 47 -36 87 -69 88 -73 2 -5 10 -8 18 -8 8 0 14 -4 14 -10 0 -5 7
-10 15 -10 8 0 15 -4 15 -8 0 -5 10 -14 23 -21 30 -16 51 -29 122 -75 67 -44
365 -200 365 -191 0 3 20 -6 45 -19 25 -14 45 -23 45 -20 0 4 7 1 15 -6 8 -7
15 -9 15 -5 0 4 6 3 13 -3 15 -13 275 -94 387 -121 114 -27 205 -43 320 -57
19 -2 53 -6 75 -9 22 -3 92 -7 155 -10 63 -3 126 -7 140 -8 14 -2 29 -1 33 1
5 2 61 6 125 8 169 6 198 9 377 40 50 9 96 16 103 17 6 0 12 3 12 6 0 3 19 7
42 9 23 1 48 8 55 14 7 6 13 8 13 5 0 -5 85 16 120 30 8 3 20 7 27 9 29 6 229
77 239 85 6 5 14 6 17 2 4 -3 7 -2 7 4 0 5 6 10 13 10 13 0 251 114 322 155
100 57 245 152 245 160 0 5 5 6 10 3 6 -3 13 1 16 9 3 9 11 16 16 16 9 0 90
61 113 84 6 6 30 27 55 45 174 134 423 410 573 636 26 39 51 75 57 82 5 7 10
15 10 17 0 3 16 30 35 60 19 29 31 56 28 60 -4 3 -1 6 5 6 7 0 12 7 12 15 0 8
4 15 10 15 5 0 10 3 9 8 -2 15 14 52 22 52 5 0 8 3 7 8 -1 4 16 45 39 92 40
83 108 255 132 335 7 22 15 47 19 55 3 8 7 22 8 30 1 8 12 49 24 90 12 41 24
86 26 100 3 28 11 64 14 68 2 1 3 10 4 20 2 15 10 62 22 126 3 17 8 61 19 161
4 37 17 287 16 310 -7 154 -11 215 -15 240 -3 17 -7 53 -11 80 -3 28 -7 64
-10 80 -3 17 -7 48 -11 70 -7 48 -3 42 -39 49 -16 3 -70 19 -120 36 -49 17
-94 32 -100 33 -5 2 -16 6 -22 10 -7 5 -13 6 -13 2 0 -3 -13 1 -30 10 -16 8
-33 16 -37 16 -5 1 -12 3 -18 5 -5 1 -28 8 -50 14 -22 6 -49 15 -60 20 -48 20
-179 59 -184 55 -3 -3 -70 -69 -148 -146 -130 -131 -141 -144 -137 -173 5 -38
12 -71 14 -71 1 0 3 -13 5 -30 1 -16 3 -30 4 -30 3 0 12 -108 16 -190 2 -44 4
-82 5 -85 1 -3 1 -9 0 -15 -1 -5 -4 -46 -5 -90 -4 -104 -16 -217 -30 -275 -4
-14 -8 -38 -10 -55 -1 -16 -4 -30 -5 -30 -1 0 -3 -9 -5 -19 -2 -11 -7 -31 -11
-45 -4 -14 -8 -29 -9 -33 -2 -5 -4 -10 -5 -13 -3 -6 -3 -6 -14 -55 -5 -19 -13
-44 -19 -55 -6 -11 -12 -27 -14 -36 -4 -25 -67 -166 -110 -249 -122 -232 -289
-443 -488 -615 -60 -52 -213 -165 -224 -165 -6 0 -11 -3 -11 -8 0 -4 -17 -16
-37 -27 -21 -11 -40 -23 -43 -26 -9 -11 -258 -129 -272 -129 -8 0 -18 -3 -21
-7 -6 -6 -93 -39 -127 -48 -136 -37 -218 -56 -280 -66 -41 -6 -84 -13 -95 -16
-48 -11 -420 -9 -498 3 -45 7 -95 15 -112 17 -16 3 -61 13 -100 22 -38 9 -74
18 -80 19 -37 8 -135 39 -160 50 -16 8 -40 17 -53 21 -12 3 -53 20 -90 37 -37
17 -69 30 -71 28 -2 -1 -7 2 -10 7 -3 4 -22 16 -41 25 -80 40 -288 173 -310
199 -3 3 -36 32 -74 64 -118 100 -250 243 -334 362 -88 125 -238 397 -246 445
-1 7 -7 22 -13 33 -6 11 -11 22 -11 25 -1 3 -3 12 -6 20 -13 38 -47 155 -52
179 -3 14 -6 31 -8 36 -4 16 -25 117 -31 150 -6 37 -18 167 -19 217 -1 21 -5
38 -9 38 -4 0 -3 9 3 19 6 12 6 22 1 26 -6 3 -6 17 -1 35 5 19 5 30 -1 30 -6
0 -7 5 -3 11 3 6 8 39 9 73 2 33 6 86 10 116 4 30 8 69 10 85 2 17 10 58 19
93 8 34 15 65 15 67 1 3 1 6 2 8 0 1 2 9 4 17 17 87 76 250 136 378 21 46 39
88 39 93 0 5 4 9 8 9 5 0 19 23 32 50 13 28 27 50 31 50 4 0 11 9 14 21 4 12
13 29 20 38 7 9 47 61 88 116 64 86 257 295 272 295 3 0 13 8 23 18 58 55 322
240 322 225 0 -5 4 -3 8 3 6 9 194 106 212 110 3 0 19 6 35 13 116 49 411 129
480 131 11 0 52 4 90 9 78 9 373 7 450 -4 28 -3 83 -13 124 -22 l74 -14 54 53
c146 142 238 239 238 251 -1 6 -16 57 -35 112 -19 55 -35 102 -35 105 -2 11
-97 297 -105 315 -5 11 -15 40 -21 65 -7 25 -15 48 -18 52 -6 7 -40 14 -111
24 -25 3 -56 7 -70 10 -48 8 -125 16 -205 19 -44 2 -82 5 -85 6 -3 1 -9 0 -15
-1 -21 -5 -93 -3 -102 3 -6 4 -13 4 -16 0z"/>
</g>
</svg>
