<?xml version="1.0" encoding="UTF-8" standalone="no"?>
<svg
   xmlns:dc="http://purl.org/dc/elements/1.1/"
   xmlns:cc="http://creativecommons.org/ns#"
   xmlns:rdf="http://www.w3.org/1999/02/22-rdf-syntax-ns#"
   xmlns:svg="http://www.w3.org/2000/svg"
   xmlns="http://www.w3.org/2000/svg"
   xmlns:sodipodi="http://sodipodi.sourceforge.net/DTD/sodipodi-0.dtd"
   xmlns:inkscape="http://www.inkscape.org/namespaces/inkscape"
   aria-hidden="true"
   focusable="false"
   data-prefix="far"
   data-icon="bullseye-arrow"
   class="svg-inline--fa fa-bullseye-arrow fa-w-16"
   role="img"
   viewBox="0 0 496 512"
   version="1.1"
   id="svg4"
   sodipodi:docname="bullseye-arrow-regular.svg"
   inkscape:version="1.0.1 (3bc2e813f5, 2020-09-07)">
  <metadata
     id="metadata10">
    <rdf:RDF>
      <cc:Work
         rdf:about="">
        <dc:format>image/svg+xml</dc:format>
        <dc:type
           rdf:resource="http://purl.org/dc/dcmitype/StillImage" />
        <dc:title></dc:title>
      </cc:Work>
    </rdf:RDF>
  </metadata>
  <defs
     id="defs8" />
  <sodipodi:namedview
     pagecolor="#ffffff"
     bordercolor="#666666"
     borderopacity="1"
     objecttolerance="10"
     gridtolerance="10"
     guidetolerance="10"
     inkscape:pageopacity="0"
     inkscape:pageshadow="2"
     inkscape:window-width="1518"
     inkscape:window-height="950"
     id="namedview6"
     showgrid="false"
     inkscape:zoom="1.6816406"
     inkscape:cx="240.70667"
     inkscape:cy="256"
     inkscape:window-x="0"
     inkscape:window-y="25"
     inkscape:window-maximized="0"
     inkscape:current-layer="svg4" />
  <path
     fill="currentColor"
     d="M305.05 98.74l16.57 49.7-90.59 90.59c-9.38 9.38-9.38 24.56 0 33.94 9.37 9.37 24.56 9.38 33.94 0l90.59-90.59 49.7 16.57c7.39 2.46 15.53.54 21.04-4.96l63.67-63.67c10.8-10.8 6.46-29.2-8.04-34.04l-55.66-18.55-18.55-55.65c-4.83-14.5-23.23-18.84-34.04-8.04L310.02 77.7a20.582 20.582 0 0 0-4.97 21.04zM248 152c7.66 0 15.08.96 22.27 2.54l14.74-14.74-10.32-30.95c-.24-.73-.2-1.47-.41-2.21-8.57-1.5-17.28-2.65-26.29-2.65-84.02 0-152 68-152 152 0 84.02 68 152 152 152 84.02 0 152-68 152-152 0-9.03-1.15-17.75-2.65-26.34-.72-.21-1.49-.12-2.2-.36l-30.94-10.31-14.74 14.74c1.58 7.19 2.53 14.61 2.53 22.27 0 57.35-46.65 104-104 104s-104-46.65-104-104S190.65 152 248 152zm236.43 29.1l-35.5 35.5c-1.34 1.34-2.87 2.38-4.32 3.55 2.12 11.65 3.39 23.59 3.39 35.84 0 110.28-89.72 200-200 200s-200-89.72-200-200 89.72-200 200-200c12.34 0 24.37 1.28 36.1 3.43 1.16-1.42 1.98-3.04 3.3-4.36l35.5-35.5A248.155 248.155 0 0 0 248 8C111.03 8 0 119.03 0 256s111.03 248 248 248 248-111.03 248-248c0-26.11-4.09-51.26-11.57-74.9z"
     id="path2"
     style="fill:#2563eb;fill-opacity:1" />
  <path
     style="fill:#2563eb;stroke:none;stroke-width:0.594657;fill-opacity:1"
     d="M 235.46033,503.33166 C 185.89629,500.86667 137.32329,483.07865 98.027428,453.00207 78.812252,438.29501 59.714188,418.53568 45.84717,399.0151 31.785019,379.21983 18.68117,352.85568 11.709503,330.33217 -5.2282914,275.6109 -3.1391867,217.79989 17.683449,165.01742 36.004677,118.57567 69.165346,77.615454 110.93148,49.837005 165.85394,13.308343 233.55898,0.05984334 297.40072,13.348766 c 8.40584,1.749711 23.68064,5.717887 24.26697,6.304213 0.16318,0.163179 -8.18362,8.804033 -18.54845,19.201897 -10.36483,10.397864 -18.84514,19.25329 -18.84514,19.678725 0,0.515292 -0.44667,0.650076 -1.33798,0.403745 -0.73589,-0.203375 -5.48571,-0.940047 -10.55517,-1.637048 -11.06552,-1.521402 -34.16876,-1.819696 -45.19396,-0.583516 -19.56338,2.193509 -39.61195,7.327406 -56.49245,14.466191 -49.9189,21.110771 -89.055828,61.094447 -109.018143,111.376837 -23.783851,59.90833 -16.739923,129.07275 18.61365,182.76764 33.151363,50.35019 84.482913,82.12729 144.815643,89.64899 11.42518,1.42438 33.71674,1.43111 45.49129,0.0137 45.91238,-5.52679 86.72163,-25.241 118.9369,-57.45628 43.2129,-43.21289 64.44213,-103.75191 57.38371,-163.64009 -0.47511,-4.03114 -1.1043,-8.60053 -1.39819,-10.15421 l -0.53436,-2.82488 19.27989,-19.17744 c 10.60395,-10.5476 19.49473,-19.25359 19.7573,-19.34666 0.86819,-0.30774 5.17378,16.19286 7.4574,28.5795 4.56036,24.73606 5.32097,51.86638 2.14708,76.58542 -1.1194,8.71811 -3.27561,20.50045 -4.76151,26.01866 l -0.66946,2.48619 h -8.30228 -8.30229 v 23.20245 23.20244 l -2.934,5.84668 c -11.90903,23.7315 -27.89587,45.32081 -48.27582,65.1937 -18.78205,18.31475 -37.82836,31.89488 -61.18042,43.62203 -32.35015,16.24588 -63.42981,24.37398 -100.31116,26.23384 -6.47997,0.32678 -12.31695,0.55746 -12.97107,0.51263 -0.65412,-0.0448 -5.36039,-0.28896 -10.45837,-0.5425 z"
     id="path26" />
  <path
     style="fill:#2563eb;stroke:none;stroke-width:0.594657;fill-opacity:1"
     d="m 232.39868,406.97768 c -2.94355,-0.31646 -9.3222,-1.37167 -14.17478,-2.34492 C 162.69621,393.496 117.89616,352.19245 102.15865,297.62602 98.527877,285.0371 97.02968,274.79283 96.679726,260.1626 c -0.415416,-17.36688 0.906731,-29.11583 4.927384,-43.78601 12.01507,-43.83951 43.39534,-80.52511 84.57474,-98.87344 26.50959,-11.81189 54.65993,-15.6222 83.53158,-11.30647 3.57915,0.53501 4.6086,0.90516 4.6086,1.65704 0,0.53249 2.30766,7.89133 5.12813,16.353 l 5.12814,15.38484 -7.3581,7.31702 -7.3581,7.31702 -4.1626,-0.87924 c -6.78451,-1.43303 -24.31303,-1.74035 -32.29213,-0.56616 -43.48265,6.39882 -77.64254,38.01607 -87.15698,80.66958 -10.39764,46.61292 12.46715,94.54974 55.22611,115.78341 14.99018,7.44397 29.4247,10.82164 46.27511,10.82834 27.55493,0.0109 52.08079,-9.68537 71.77122,-28.37487 18.50444,-17.56378 29.37317,-39.55119 32.18221,-65.10448 0.81921,-7.45226 0.34453,-20.89899 -0.98056,-27.77698 l -0.96412,-5.00432 7.2472,-7.26464 7.2472,-7.26465 16.43201,5.47944 16.43201,5.47943 1.10401,6.78953 c 1.52664,9.38863 1.60976,28.97624 0.16508,38.90103 -4.98715,34.26114 -19.58727,63.6349 -43.45571,87.42791 -7.88675,7.86183 -14.25796,13.05038 -23.82035,19.39866 -7.99106,5.3051 -21.95717,12.39671 -30.88344,15.68175 -7.66261,2.81999 -22.00856,6.43543 -30.6636,7.72778 -8.09135,1.20819 -29.2213,1.6747 -37.16609,0.82056 z"
     id="path851" />
</svg>
